const SONGS_DATA = {"index": [{"id": "twinkle_twinkle_little_star_pd_first_20s", "title": "Twinkle Twinkle Little Star (PD) — first ~20s", "bpm": 120.0, "file": "songs/twinkle_twinkle_little_star_pd_first_20s.json", "duration_sec": 20.5, "range_midi": [72, 81]}, {"id": "greensleeves_traditional_pd_first_35s", "title": "Greensleeves (traditional, PD) — first ~35s", "bpm": 120.0, "file": "songs/greensleeves_traditional_pd_first_35s.json", "duration_sec": 36.5, "range_midi": [64, 79]}, {"id": "ode_to_joy_beethoven_pd_easy_variation_30s", "title": "Ode to Joy (Beethoven, PD) — easy variation (~30s)", "bpm": 140.0, "file": "songs/ode_to_joy_beethoven_pd_easy_variation_30s.json", "duration_sec": 29.143, "range_midi": [62, 74]}, {"id": "minuet_in_g_major_trad_attrib_bach_pd_first_35s", "title": "Minuet in G Major (trad. attrib. Bach, PD) — first ~35s", "bpm": 126.0, "file": "songs/minuet_in_g_major_trad_attrib_bach_pd_first_35s.json", "duration_sec": 34.286, "range_midi": [66, 83]}, {"id": "oh_susanna_stephen_foster_pd_pentatonic_melody_midi_example", "title": "Oh! Susanna (Stephen Foster, PD) — pentatonic melody (MIDI example)", "bpm": 120.0, "file": "songs/oh_susanna_stephen_foster_pd_pentatonic_melody_midi_example.json", "duration_sec": 16.0, "range_midi": [60, 69]}, {"id": "fr_re_jacques_traditional_simple_melody", "title": "Frère Jacques (traditional, simple melody)", "bpm": 100.0, "file": "songs/fr_re_jacques_traditional_simple_melody.json", "duration_sec": 20.4, "range_midi": [55, 69]}], "songs": {"twinkle_twinkle_little_star_pd_first_20s": {"title": "Twinkle Twinkle Little Star (PD) — first ~20s", "bpm": 120.0, "notes": [{"t": 0.0, "d": 0.5, "midi": 72, "vel": 0.9}, {"t": 0.5, "d": 0.5, "midi": 72, "vel": 0.9}, {"t": 1.0, "d": 0.5, "midi": 79, "vel": 0.9}, {"t": 1.5, "d": 0.5, "midi": 79, "vel": 0.9}, {"t": 2.0, "d": 0.5, "midi": 81, "vel": 0.9}, {"t": 2.5, "d": 0.5, "midi": 81, "vel": 0.9}, {"t": 3.0, "d": 0.5, "midi": 79, "vel": 0.9}, {"t": 3.5, "d": 0.5, "midi": 79, "vel": 0.9}, {"t": 4.0, "d": 0.5, "midi": 77, "vel": 0.9}, {"t": 4.5, "d": 0.5, "midi": 77, "vel": 0.9}, {"t": 5.0, "d": 0.5, "midi": 76, "vel": 0.9}, {"t": 5.5, "d": 0.5, "midi": 76, "vel": 0.9}, {"t": 6.0, "d": 0.5, "midi": 74, "vel": 0.9}, {"t": 6.5, "d": 0.375, "midi": 74, "vel": 0.9}, {"t": 6.875, "d": 0.125, "midi": 76, "vel": 0.9}, {"t": 7.0, "d": 0.5, "midi": 72, "vel": 0.9}, {"t": 8.0, "d": 0.5, "midi": 79, "vel": 0.9}, {"t": 8.5, "d": 0.5, "midi": 79, "vel": 0.9}, {"t": 9.0, "d": 0.5, "midi": 77, "vel": 0.9}, {"t": 9.5, "d": 0.5, "midi": 77, "vel": 0.9}, {"t": 10.0, "d": 0.5, "midi": 76, "vel": 0.9}, {"t": 10.5, "d": 0.5, "midi": 76, "vel": 0.9}, {"t": 11.0, "d": 0.5, "midi": 74, "vel": 0.9}, {"t": 11.5, "d": 0.5, "midi": 74, "vel": 0.9}, {"t": 12.0, "d": 0.5, "midi": 79, "vel": 0.9}, {"t": 12.5, "d": 0.5, "midi": 79, "vel": 0.9}, {"t": 13.0, "d": 0.5, "midi": 77, "vel": 0.9}, {"t": 13.5, "d": 0.5, "midi": 77, "vel": 0.9}, {"t": 14.0, "d": 0.5, "midi": 76, "vel": 0.9}, {"t": 14.5, "d": 0.375, "midi": 76, "vel": 0.9}, {"t": 14.875, "d": 0.125, "midi": 77, "vel": 0.9}, {"t": 15.0, "d": 0.5, "midi": 76, "vel": 0.9}, {"t": 15.5, "d": 0.5, "midi": 74, "vel": 0.9}, {"t": 16.0, "d": 0.5, "midi": 72, "vel": 0.9}, {"t": 16.5, "d": 0.5, "midi": 72, "vel": 0.9}, {"t": 17.0, "d": 0.5, "midi": 79, "vel": 0.9}, {"t": 17.5, "d": 0.5, "midi": 79, "vel": 0.9}, {"t": 18.0, "d": 0.5, "midi": 81, "vel": 0.9}, {"t": 18.5, "d": 0.5, "midi": 81, "vel": 0.9}, {"t": 19.0, "d": 0.5, "midi": 79, "vel": 0.9}, {"t": 19.5, "d": 0.5, "midi": 79, "vel": 0.9}, {"t": 20.0, "d": 0.5, "midi": 77, "vel": 0.9}]}, "greensleeves_traditional_pd_first_35s": {"title": "Greensleeves (traditional, PD) — first ~35s", "bpm": 120.0, "notes": [{"t": 0.0, "d": 0.5, "midi": 69, "vel": 0.9}, {"t": 0.5, "d": 1.0, "midi": 72, "vel": 0.9}, {"t": 1.5, "d": 0.5, "midi": 74, "vel": 0.9}, {"t": 2.0, "d": 0.75, "midi": 76, "vel": 0.9}, {"t": 2.75, "d": 0.25, "midi": 77, "vel": 0.9}, {"t": 3.0, "d": 0.5, "midi": 76, "vel": 0.9}, {"t": 3.5, "d": 1.0, "midi": 74, "vel": 0.9}, {"t": 4.5, "d": 0.5, "midi": 71, "vel": 0.9}, {"t": 5.0, "d": 0.75, "midi": 67, "vel": 0.9}, {"t": 5.75, "d": 0.25, "midi": 69, "vel": 0.9}, {"t": 6.0, "d": 0.5, "midi": 71, "vel": 0.9}, {"t": 6.5, "d": 1.0, "midi": 72, "vel": 0.9}, {"t": 7.5, "d": 0.5, "midi": 69, "vel": 0.9}, {"t": 8.0, "d": 0.75, "midi": 69, "vel": 0.9}, {"t": 8.75, "d": 0.25, "midi": 68, "vel": 0.9}, {"t": 9.0, "d": 0.5, "midi": 69, "vel": 0.9}, {"t": 9.5, "d": 1.0, "midi": 71, "vel": 0.9}, {"t": 10.5, "d": 0.5, "midi": 68, "vel": 0.9}, {"t": 11.0, "d": 1.0, "midi": 64, "vel": 0.9}, {"t": 12.0, "d": 0.5, "midi": 69, "vel": 0.9}, {"t": 12.5, "d": 1.0, "midi": 69, "vel": 0.9}, {"t": 12.5, "d": 1.0, "midi": 72, "vel": 0.9}, {"t": 13.5, "d": 0.5, "midi": 74, "vel": 0.9}, {"t": 14.0, "d": 0.75, "midi": 72, "vel": 0.9}, {"t": 14.0, "d": 0.75, "midi": 76, "vel": 0.9}, {"t": 14.75, "d": 0.25, "midi": 77, "vel": 0.9}, {"t": 15.0, "d": 0.5, "midi": 76, "vel": 0.9}, {"t": 15.0, "d": 0.5, "midi": 79, "vel": 0.9}, {"t": 15.5, "d": 1.0, "midi": 74, "vel": 0.9}, {"t": 16.5, "d": 0.5, "midi": 71, "vel": 0.9}, {"t": 17.0, "d": 0.75, "midi": 67, "vel": 0.9}, {"t": 18.0, "d": 0.166667, "midi": 67, "vel": 0.9}, {"t": 18.166667, "d": 0.166667, "midi": 69, "vel": 0.9}, {"t": 18.333333, "d": 0.166667, "midi": 71, "vel": 0.9}, {"t": 18.5, "d": 0.75, "midi": 69, "vel": 0.9}, {"t": 18.5, "d": 0.75, "midi": 72, "vel": 0.9}, {"t": 19.25, "d": 0.25, "midi": 71, "vel": 0.9}, {"t": 19.5, "d": 0.5, "midi": 69, "vel": 0.9}, {"t": 20.0, "d": 0.75, "midi": 68, "vel": 0.9}, {"t": 20.75, "d": 0.25, "midi": 66, "vel": 0.9}, {"t": 21.0, "d": 0.5, "midi": 68, "vel": 0.9}, {"t": 23.0, "d": 1.5, "midi": 69, "vel": 0.9}, {"t": 24.5, "d": 1.5, "midi": 79, "vel": 0.9}, {"t": 26.0, "d": 0.75, "midi": 79, "vel": 0.9}, {"t": 26.75, "d": 0.25, "midi": 78, "vel": 0.9}, {"t": 27.0, "d": 0.5, "midi": 76, "vel": 0.9}, {"t": 27.5, "d": 1.0, "midi": 74, "vel": 0.9}, {"t": 28.5, "d": 0.5, "midi": 71, "vel": 0.9}, {"t": 29.0, "d": 0.75, "midi": 67, "vel": 0.9}, {"t": 29.75, "d": 0.25, "midi": 69, "vel": 0.9}, {"t": 30.0, "d": 0.5, "midi": 71, "vel": 0.9}, {"t": 30.5, "d": 1.0, "midi": 72, "vel": 0.9}, {"t": 31.5, "d": 0.5, "midi": 69, "vel": 0.9}, {"t": 32.0, "d": 0.75, "midi": 69, "vel": 0.9}, {"t": 32.75, "d": 0.25, "midi": 68, "vel": 0.9}, {"t": 33.0, "d": 0.5, "midi": 69, "vel": 0.9}, {"t": 33.5, "d": 1.0, "midi": 71, "vel": 0.9}, {"t": 34.5, "d": 0.5, "midi": 68, "vel": 0.9}, {"t": 35.0, "d": 1.5, "midi": 64, "vel": 0.9}]}, "ode_to_joy_beethoven_pd_easy_variation_30s": {"title": "Ode to Joy (Beethoven, PD) — easy variation (~30s)", "bpm": 140.0, "notes": [{"t": 0.0, "d": 0.428571, "midi": 71, "vel": 0.9}, {"t": 0.428571, "d": 0.428571, "midi": 71, "vel": 0.9}, {"t": 0.857143, "d": 0.428571, "midi": 72, "vel": 0.9}, {"t": 1.285714, "d": 0.428571, "midi": 74, "vel": 0.9}, {"t": 1.714286, "d": 0.428571, "midi": 74, "vel": 0.9}, {"t": 2.142857, "d": 0.428571, "midi": 72, "vel": 0.9}, {"t": 2.571429, "d": 0.428571, "midi": 71, "vel": 0.9}, {"t": 3.0, "d": 0.428571, "midi": 69, "vel": 0.9}, {"t": 3.428571, "d": 0.428571, "midi": 67, "vel": 0.9}, {"t": 3.857143, "d": 0.428571, "midi": 67, "vel": 0.9}, {"t": 4.285714, "d": 0.428571, "midi": 69, "vel": 0.9}, {"t": 4.714286, "d": 0.428571, "midi": 71, "vel": 0.9}, {"t": 5.142857, "d": 0.642857, "midi": 71, "vel": 0.9}, {"t": 5.785714, "d": 0.214286, "midi": 69, "vel": 0.9}, {"t": 6.0, "d": 0.857143, "midi": 69, "vel": 0.9}, {"t": 6.857143, "d": 0.428571, "midi": 71, "vel": 0.9}, {"t": 7.285714, "d": 0.428571, "midi": 71, "vel": 0.9}, {"t": 7.714286, "d": 0.428571, "midi": 72, "vel": 0.9}, {"t": 8.142857, "d": 0.428571, "midi": 74, "vel": 0.9}, {"t": 8.571429, "d": 0.428571, "midi": 74, "vel": 0.9}, {"t": 9.0, "d": 0.428571, "midi": 72, "vel": 0.9}, {"t": 9.428571, "d": 0.428571, "midi": 71, "vel": 0.9}, {"t": 9.857143, "d": 0.428571, "midi": 69, "vel": 0.9}, {"t": 10.285714, "d": 0.428571, "midi": 67, "vel": 0.9}, {"t": 10.714286, "d": 0.428571, "midi": 67, "vel": 0.9}, {"t": 11.142857, "d": 0.428571, "midi": 69, "vel": 0.9}, {"t": 11.571429, "d": 0.428571, "midi": 71, "vel": 0.9}, {"t": 12.0, "d": 0.642857, "midi": 69, "vel": 0.9}, {"t": 12.642857, "d": 0.214286, "midi": 67, "vel": 0.9}, {"t": 12.857143, "d": 0.857143, "midi": 67, "vel": 0.9}, {"t": 13.714286, "d": 0.428571, "midi": 69, "vel": 0.9}, {"t": 14.142857, "d": 0.428571, "midi": 69, "vel": 0.9}, {"t": 14.571429, "d": 0.428571, "midi": 71, "vel": 0.9}, {"t": 15.0, "d": 0.428571, "midi": 67, "vel": 0.9}, {"t": 15.428571, "d": 0.428571, "midi": 69, "vel": 0.9}, {"t": 15.857143, "d": 0.214286, "midi": 71, "vel": 0.9}, {"t": 16.071429, "d": 0.214286, "midi": 72, "vel": 0.9}, {"t": 16.285714, "d": 0.428571, "midi": 71, "vel": 0.9}, {"t": 16.714286, "d": 0.428571, "midi": 67, "vel": 0.9}, {"t": 17.142857, "d": 0.428571, "midi": 69, "vel": 0.9}, {"t": 17.571429, "d": 0.214286, "midi": 71, "vel": 0.9}, {"t": 17.785714, "d": 0.214286, "midi": 72, "vel": 0.9}, {"t": 18.0, "d": 0.428571, "midi": 71, "vel": 0.9}, {"t": 18.428571, "d": 0.428571, "midi": 69, "vel": 0.9}, {"t": 18.857143, "d": 0.428571, "midi": 67, "vel": 0.9}, {"t": 19.285714, "d": 0.428571, "midi": 69, "vel": 0.9}, {"t": 19.714286, "d": 0.857143, "midi": 62, "vel": 0.9}, {"t": 20.571429, "d": 0.428571, "midi": 71, "vel": 0.9}, {"t": 21.0, "d": 0.428571, "midi": 71, "vel": 0.9}, {"t": 21.428571, "d": 0.428571, "midi": 72, "vel": 0.9}, {"t": 21.857143, "d": 0.428571, "midi": 74, "vel": 0.9}, {"t": 22.285714, "d": 0.428571, "midi": 74, "vel": 0.9}, {"t": 22.714286, "d": 0.428571, "midi": 72, "vel": 0.9}, {"t": 23.142857, "d": 0.428571, "midi": 71, "vel": 0.9}, {"t": 23.571429, "d": 0.428571, "midi": 69, "vel": 0.9}, {"t": 24.0, "d": 0.428571, "midi": 67, "vel": 0.9}, {"t": 24.428571, "d": 0.428571, "midi": 67, "vel": 0.9}, {"t": 24.857143, "d": 0.428571, "midi": 69, "vel": 0.9}, {"t": 25.285714, "d": 0.428571, "midi": 71, "vel": 0.9}, {"t": 25.714286, "d": 0.642857, "midi": 69, "vel": 0.9}, {"t": 26.357143, "d": 0.214286, "midi": 67, "vel": 0.9}, {"t": 27.428571, "d": 1.714286, "midi": 67, "vel": 0.9}]}, "minuet_in_g_major_trad_attrib_bach_pd_first_35s": {"title": "Minuet in G Major (trad. attrib. Bach, PD) — first ~35s", "bpm": 126.0, "notes": [{"t": 0.0, "d": 0.47619, "midi": 74, "vel": 0.9}, {"t": 0.47619, "d": 0.238095, "midi": 67, "vel": 0.9}, {"t": 0.714286, "d": 0.238095, "midi": 69, "vel": 0.9}, {"t": 0.952381, "d": 0.238095, "midi": 71, "vel": 0.9}, {"t": 1.190476, "d": 0.238095, "midi": 72, "vel": 0.9}, {"t": 1.428571, "d": 0.47619, "midi": 74, "vel": 0.9}, {"t": 1.904762, "d": 0.47619, "midi": 67, "vel": 0.9}, {"t": 2.380952, "d": 0.47619, "midi": 67, "vel": 0.9}, {"t": 2.857143, "d": 0.47619, "midi": 76, "vel": 0.9}, {"t": 3.333333, "d": 0.238095, "midi": 72, "vel": 0.9}, {"t": 3.571429, "d": 0.238095, "midi": 74, "vel": 0.9}, {"t": 3.809524, "d": 0.238095, "midi": 76, "vel": 0.9}, {"t": 4.047619, "d": 0.238095, "midi": 78, "vel": 0.9}, {"t": 4.285714, "d": 0.47619, "midi": 79, "vel": 0.9}, {"t": 4.761905, "d": 0.47619, "midi": 67, "vel": 0.9}, {"t": 5.238095, "d": 0.47619, "midi": 67, "vel": 0.9}, {"t": 5.714286, "d": 0.47619, "midi": 72, "vel": 0.9}, {"t": 6.190476, "d": 0.238095, "midi": 74, "vel": 0.9}, {"t": 6.428571, "d": 0.238095, "midi": 72, "vel": 0.9}, {"t": 6.666667, "d": 0.238095, "midi": 71, "vel": 0.9}, {"t": 6.904762, "d": 0.238095, "midi": 69, "vel": 0.9}, {"t": 7.142857, "d": 0.47619, "midi": 71, "vel": 0.9}, {"t": 7.619048, "d": 0.238095, "midi": 72, "vel": 0.9}, {"t": 7.857143, "d": 0.238095, "midi": 71, "vel": 0.9}, {"t": 8.095238, "d": 0.238095, "midi": 69, "vel": 0.9}, {"t": 8.333333, "d": 0.238095, "midi": 67, "vel": 0.9}, {"t": 8.571429, "d": 0.47619, "midi": 66, "vel": 0.9}, {"t": 9.047619, "d": 0.238095, "midi": 67, "vel": 0.9}, {"t": 9.285714, "d": 0.238095, "midi": 69, "vel": 0.9}, {"t": 9.52381, "d": 0.238095, "midi": 71, "vel": 0.9}, {"t": 9.761905, "d": 0.238095, "midi": 67, "vel": 0.9}, {"t": 10.0, "d": 0.47619, "midi": 71, "vel": 0.9}, {"t": 10.47619, "d": 0.952381, "midi": 69, "vel": 0.9}, {"t": 11.428571, "d": 0.47619, "midi": 74, "vel": 0.9}, {"t": 11.904762, "d": 0.238095, "midi": 67, "vel": 0.9}, {"t": 12.142857, "d": 0.238095, "midi": 69, "vel": 0.9}, {"t": 12.380952, "d": 0.238095, "midi": 71, "vel": 0.9}, {"t": 12.619048, "d": 0.238095, "midi": 72, "vel": 0.9}, {"t": 12.857143, "d": 0.47619, "midi": 74, "vel": 0.9}, {"t": 13.333333, "d": 0.47619, "midi": 67, "vel": 0.9}, {"t": 13.809524, "d": 0.47619, "midi": 67, "vel": 0.9}, {"t": 14.285714, "d": 0.47619, "midi": 76, "vel": 0.9}, {"t": 14.761905, "d": 0.238095, "midi": 72, "vel": 0.9}, {"t": 15.0, "d": 0.238095, "midi": 74, "vel": 0.9}, {"t": 15.238095, "d": 0.238095, "midi": 76, "vel": 0.9}, {"t": 15.47619, "d": 0.238095, "midi": 78, "vel": 0.9}, {"t": 15.714286, "d": 0.47619, "midi": 79, "vel": 0.9}, {"t": 16.190476, "d": 0.47619, "midi": 67, "vel": 0.9}, {"t": 16.666667, "d": 0.47619, "midi": 67, "vel": 0.9}, {"t": 17.142857, "d": 0.47619, "midi": 72, "vel": 0.9}, {"t": 17.619048, "d": 0.238095, "midi": 74, "vel": 0.9}, {"t": 17.857143, "d": 0.238095, "midi": 72, "vel": 0.9}, {"t": 18.095238, "d": 0.238095, "midi": 71, "vel": 0.9}, {"t": 18.333333, "d": 0.238095, "midi": 69, "vel": 0.9}, {"t": 18.571429, "d": 0.47619, "midi": 71, "vel": 0.9}, {"t": 19.047619, "d": 0.238095, "midi": 72, "vel": 0.9}, {"t": 19.285714, "d": 0.238095, "midi": 71, "vel": 0.9}, {"t": 19.52381, "d": 0.238095, "midi": 69, "vel": 0.9}, {"t": 19.761905, "d": 0.238095, "midi": 67, "vel": 0.9}, {"t": 20.0, "d": 0.47619, "midi": 69, "vel": 0.9}, {"t": 20.47619, "d": 0.238095, "midi": 71, "vel": 0.9}, {"t": 20.714286, "d": 0.238095, "midi": 69, "vel": 0.9}, {"t": 20.952381, "d": 0.238095, "midi": 67, "vel": 0.9}, {"t": 21.190476, "d": 0.238095, "midi": 66, "vel": 0.9}, {"t": 21.428571, "d": 1.428571, "midi": 67, "vel": 0.9}, {"t": 22.857143, "d": 0.47619, "midi": 83, "vel": 0.9}, {"t": 23.333333, "d": 0.238095, "midi": 79, "vel": 0.9}, {"t": 23.571429, "d": 0.238095, "midi": 81, "vel": 0.9}, {"t": 23.809524, "d": 0.238095, "midi": 83, "vel": 0.9}, {"t": 24.047619, "d": 0.238095, "midi": 79, "vel": 0.9}, {"t": 24.285714, "d": 0.47619, "midi": 81, "vel": 0.9}, {"t": 24.761905, "d": 0.238095, "midi": 74, "vel": 0.9}, {"t": 25.0, "d": 0.238095, "midi": 76, "vel": 0.9}, {"t": 25.238095, "d": 0.238095, "midi": 78, "vel": 0.9}, {"t": 25.47619, "d": 0.238095, "midi": 74, "vel": 0.9}, {"t": 25.714286, "d": 0.47619, "midi": 79, "vel": 0.9}, {"t": 26.190476, "d": 0.238095, "midi": 76, "vel": 0.9}, {"t": 26.428571, "d": 0.238095, "midi": 78, "vel": 0.9}, {"t": 26.666667, "d": 0.238095, "midi": 79, "vel": 0.9}, {"t": 26.904762, "d": 0.238095, "midi": 74, "vel": 0.9}, {"t": 27.142857, "d": 0.47619, "midi": 73, "vel": 0.9}, {"t": 27.619048, "d": 0.238095, "midi": 71, "vel": 0.9}, {"t": 27.857143, "d": 0.238095, "midi": 73, "vel": 0.9}, {"t": 28.095238, "d": 0.47619, "midi": 69, "vel": 0.9}, {"t": 28.571429, "d": 0.238095, "midi": 69, "vel": 0.9}, {"t": 28.809524, "d": 0.238095, "midi": 71, "vel": 0.9}, {"t": 29.047619, "d": 0.238095, "midi": 73, "vel": 0.9}, {"t": 29.285714, "d": 0.238095, "midi": 74, "vel": 0.9}, {"t": 29.52381, "d": 0.238095, "midi": 76, "vel": 0.9}, {"t": 29.761905, "d": 0.238095, "midi": 78, "vel": 0.9}, {"t": 30.0, "d": 0.47619, "midi": 79, "vel": 0.9}, {"t": 30.47619, "d": 0.47619, "midi": 78, "vel": 0.9}, {"t": 30.952381, "d": 0.47619, "midi": 76, "vel": 0.9}, {"t": 31.428571, "d": 0.47619, "midi": 78, "vel": 0.9}, {"t": 31.904762, "d": 0.47619, "midi": 69, "vel": 0.9}, {"t": 32.380952, "d": 0.47619, "midi": 73, "vel": 0.9}, {"t": 32.857143, "d": 1.428571, "midi": 74, "vel": 0.9}]}, "oh_susanna_stephen_foster_pd_pentatonic_melody_midi_example": {"title": "Oh! Susanna (Stephen Foster, PD) — pentatonic melody (MIDI example)", "bpm": 120.0, "notes": [{"t": 0.0, "d": 0.25, "midi": 60, "vel": 0.566929}, {"t": 0.300781, "d": 0.199219, "midi": 62, "vel": 0.606299}, {"t": 0.5, "d": 0.5, "midi": 64, "vel": 0.700787}, {"t": 1.0, "d": 0.5, "midi": 67, "vel": 0.677165}, {"t": 1.5, "d": 0.5, "midi": 67, "vel": 0.629921}, {"t": 2.0, "d": 0.5, "midi": 69, "vel": 0.685039}, {"t": 2.5, "d": 0.5, "midi": 67, "vel": 0.606299}, {"t": 3.0, "d": 0.5, "midi": 64, "vel": 0.590551}, {"t": 3.5, "d": 0.5, "midi": 60, "vel": 0.551181}, {"t": 4.0, "d": 0.5, "midi": 62, "vel": 0.645669}, {"t": 4.5, "d": 0.5, "midi": 64, "vel": 0.661417}, {"t": 5.0, "d": 0.5, "midi": 64, "vel": 0.622047}, {"t": 5.5, "d": 0.5, "midi": 62, "vel": 0.582677}, {"t": 6.0, "d": 0.5, "midi": 60, "vel": 0.582677}, {"t": 6.5, "d": 1.5, "midi": 62, "vel": 0.653543}, {"t": 8.0, "d": 0.25, "midi": 60, "vel": 0.574803}, {"t": 8.300781, "d": 0.199219, "midi": 62, "vel": 0.566929}, {"t": 8.5, "d": 0.5, "midi": 64, "vel": 0.653543}, {"t": 9.0, "d": 0.5, "midi": 67, "vel": 0.685039}, {"t": 9.5, "d": 0.5, "midi": 67, "vel": 0.669291}, {"t": 10.0, "d": 0.5, "midi": 69, "vel": 0.645669}, {"t": 10.5, "d": 0.5, "midi": 67, "vel": 0.614173}, {"t": 11.0, "d": 0.5, "midi": 64, "vel": 0.551181}, {"t": 11.5, "d": 0.5, "midi": 60, "vel": 0.551181}, {"t": 12.0, "d": 0.5, "midi": 62, "vel": 0.669291}, {"t": 12.5, "d": 0.5, "midi": 64, "vel": 0.677165}, {"t": 13.0, "d": 0.5, "midi": 64, "vel": 0.614173}, {"t": 13.5, "d": 0.5, "midi": 62, "vel": 0.598425}, {"t": 14.0, "d": 0.5, "midi": 62, "vel": 0.606299}, {"t": 14.5, "d": 1.5, "midi": 60, "vel": 0.574803}]}, "fr_re_jacques_traditional_simple_melody": {"title": "Frère Jacques (traditional, simple melody)", "bpm": 100.0, "notes": [{"t": 0.0, "d": 0.6, "midi": 60, "vel": 0.9}, {"t": 0.6, "d": 0.6, "midi": 62, "vel": 0.9}, {"t": 1.2, "d": 0.6, "midi": 64, "vel": 0.9}, {"t": 1.7999999999999998, "d": 0.6, "midi": 60, "vel": 0.9}, {"t": 2.4, "d": 0.6, "midi": 60, "vel": 0.9}, {"t": 3.0, "d": 0.6, "midi": 62, "vel": 0.9}, {"t": 3.6, "d": 0.6, "midi": 64, "vel": 0.9}, {"t": 4.2, "d": 0.6, "midi": 60, "vel": 0.9}, {"t": 4.8, "d": 0.6, "midi": 64, "vel": 0.9}, {"t": 5.3999999999999995, "d": 0.6, "midi": 65, "vel": 0.9}, {"t": 5.999999999999999, "d": 0.6, "midi": 67, "vel": 0.9}, {"t": 6.599999999999999, "d": 0.6, "midi": 64, "vel": 0.9}, {"t": 7.199999999999998, "d": 0.6, "midi": 65, "vel": 0.9}, {"t": 7.799999999999998, "d": 0.6, "midi": 67, "vel": 0.9}, {"t": 8.399999999999999, "d": 0.6, "midi": 67, "vel": 0.9}, {"t": 8.999999999999998, "d": 0.6, "midi": 69, "vel": 0.9}, {"t": 9.599999999999998, "d": 0.6, "midi": 67, "vel": 0.9}, {"t": 10.199999999999998, "d": 0.6, "midi": 65, "vel": 0.9}, {"t": 10.799999999999997, "d": 0.6, "midi": 64, "vel": 0.9}, {"t": 11.399999999999997, "d": 0.6, "midi": 60, "vel": 0.9}, {"t": 11.999999999999996, "d": 0.6, "midi": 67, "vel": 0.9}, {"t": 12.599999999999996, "d": 0.6, "midi": 69, "vel": 0.9}, {"t": 13.199999999999996, "d": 0.6, "midi": 67, "vel": 0.9}, {"t": 13.799999999999995, "d": 0.6, "midi": 65, "vel": 0.9}, {"t": 14.399999999999995, "d": 0.6, "midi": 64, "vel": 0.9}, {"t": 14.999999999999995, "d": 0.6, "midi": 60, "vel": 0.9}, {"t": 15.599999999999994, "d": 0.6, "midi": 60, "vel": 0.9}, {"t": 16.199999999999996, "d": 0.6, "midi": 55, "vel": 0.9}, {"t": 16.799999999999997, "d": 1.2, "midi": 60, "vel": 0.9}, {"t": 17.999999999999996, "d": 0.6, "midi": 60, "vel": 0.9}, {"t": 18.599999999999998, "d": 0.6, "midi": 55, "vel": 0.9}, {"t": 19.2, "d": 1.2, "midi": 60, "vel": 0.9}]}}};
if (typeof window !== "undefined") { window.SONGS_DATA = SONGS_DATA; }
